<mxfile host="app.diagrams.net" agent="Mozilla/5.0 (Windows NT 10.0; Win64; x64) AppleWebKit/537.36 (KHTML, like Gecko) Chrome/140.0.0.0 Safari/537.36" version="28.2.4">
  <diagram name="P치gina-1" id="N9m1IwmpfHiw1ZevQvc9">
    <mxGraphModel dx="2015" dy="1817" grid="1" gridSize="10" guides="1" tooltips="1" connect="1" arrows="1" fold="1" page="1" pageScale="1" pageWidth="827" pageHeight="1169" math="0" shadow="0">
      <root>
        <mxCell id="0" />
        <mxCell id="1" parent="0" />
        <mxCell id="8QER9VguLqibviWdvotn-1" value="Suponemos el siguiente enunciado sobre &lt;span style=&quot;background-color: light-dark(#ffffff, var(--ge-dark-color, #121212));&quot;&gt;&lt;font style=&quot;color: light-dark(rgb(0, 0, 0), rgb(102, 102, 255));&quot;&gt;municipios&lt;/font&gt;&lt;/span&gt;, &lt;font style=&quot;color: light-dark(rgb(0, 0, 0), rgb(204, 0, 0));&quot;&gt;viviendas &lt;/font&gt;y &lt;font style=&quot;color: light-dark(rgb(0, 0, 0), rgb(255, 0, 128));&quot;&gt;personas&lt;/font&gt;. Cada persona&lt;br&gt;(DNI, nombre, direccion9 s칩lo puede habitar en una vivienda ( c칩digo vivienda, descripci칩n) y&lt;br&gt;estar empadronada en un municipio ( cod_municipio, provincia), pero puede ser propietaria de&lt;br&gt;varias viviendas" style="text;whiteSpace=wrap;html=1;" vertex="1" parent="1">
          <mxGeometry x="140" y="-50" width="560" height="80" as="geometry" />
        </mxCell>
        <mxCell id="8QER9VguLqibviWdvotn-2" value="Municipio" style="rounded=0;whiteSpace=wrap;html=1;" vertex="1" parent="1">
          <mxGeometry x="707" y="402.5" width="120" height="80" as="geometry" />
        </mxCell>
        <mxCell id="8QER9VguLqibviWdvotn-3" value="Viviendas" style="rounded=0;whiteSpace=wrap;html=1;" vertex="1" parent="1">
          <mxGeometry y="390" width="120" height="80" as="geometry" />
        </mxCell>
        <mxCell id="8QER9VguLqibviWdvotn-11" style="edgeStyle=orthogonalEdgeStyle;rounded=0;orthogonalLoop=1;jettySize=auto;html=1;entryX=0;entryY=0.5;entryDx=0;entryDy=0;" edge="1" parent="1" source="8QER9VguLqibviWdvotn-12" target="8QER9VguLqibviWdvotn-10">
          <mxGeometry relative="1" as="geometry" />
        </mxCell>
        <mxCell id="8QER9VguLqibviWdvotn-17" value="" style="edgeStyle=orthogonalEdgeStyle;rounded=0;orthogonalLoop=1;jettySize=auto;html=1;" edge="1" parent="1" source="8QER9VguLqibviWdvotn-4" target="8QER9VguLqibviWdvotn-16">
          <mxGeometry relative="1" as="geometry" />
        </mxCell>
        <mxCell id="8QER9VguLqibviWdvotn-33" style="edgeStyle=orthogonalEdgeStyle;rounded=0;orthogonalLoop=1;jettySize=auto;html=1;entryX=0;entryY=0.5;entryDx=0;entryDy=0;" edge="1" parent="1" source="8QER9VguLqibviWdvotn-4" target="8QER9VguLqibviWdvotn-24">
          <mxGeometry relative="1" as="geometry" />
        </mxCell>
        <mxCell id="8QER9VguLqibviWdvotn-54" style="edgeStyle=orthogonalEdgeStyle;rounded=0;orthogonalLoop=1;jettySize=auto;html=1;entryX=1;entryY=0.5;entryDx=0;entryDy=0;" edge="1" parent="1" source="8QER9VguLqibviWdvotn-4" target="8QER9VguLqibviWdvotn-53">
          <mxGeometry relative="1" as="geometry" />
        </mxCell>
        <mxCell id="8QER9VguLqibviWdvotn-4" value="Personas" style="rounded=0;whiteSpace=wrap;html=1;" vertex="1" parent="1">
          <mxGeometry x="340" y="400" width="120" height="85" as="geometry" />
        </mxCell>
        <mxCell id="8QER9VguLqibviWdvotn-7" value="DNI" style="ellipse;whiteSpace=wrap;html=1;fillColor=#60a917;fontColor=#ffffff;strokeColor=#2D7600;" vertex="1" parent="1">
          <mxGeometry x="470" y="610" width="70" height="40" as="geometry" />
        </mxCell>
        <mxCell id="8QER9VguLqibviWdvotn-10" value="direccion" style="ellipse;whiteSpace=wrap;html=1;" vertex="1" parent="1">
          <mxGeometry x="470" y="690" width="70" height="40" as="geometry" />
        </mxCell>
        <mxCell id="8QER9VguLqibviWdvotn-12" value="nombre" style="ellipse;whiteSpace=wrap;html=1;" vertex="1" parent="1">
          <mxGeometry x="470" y="650" width="70" height="40" as="geometry" />
        </mxCell>
        <mxCell id="8QER9VguLqibviWdvotn-18" value="" style="edgeStyle=orthogonalEdgeStyle;rounded=0;orthogonalLoop=1;jettySize=auto;html=1;" edge="1" parent="1" source="8QER9VguLqibviWdvotn-16" target="8QER9VguLqibviWdvotn-3">
          <mxGeometry relative="1" as="geometry" />
        </mxCell>
        <mxCell id="8QER9VguLqibviWdvotn-16" value="habita" style="rhombus;whiteSpace=wrap;html=1;rounded=0;" vertex="1" parent="1">
          <mxGeometry x="190" y="330" width="80" height="80" as="geometry" />
        </mxCell>
        <mxCell id="8QER9VguLqibviWdvotn-19" value="codigo" style="ellipse;whiteSpace=wrap;html=1;fillColor=#60a917;fontColor=#ffffff;strokeColor=#2D7600;" vertex="1" parent="1">
          <mxGeometry x="-150" y="380" width="70" height="40" as="geometry" />
        </mxCell>
        <mxCell id="8QER9VguLqibviWdvotn-21" value="descripcion" style="ellipse;whiteSpace=wrap;html=1;" vertex="1" parent="1">
          <mxGeometry x="-150" y="422.5" width="70" height="40" as="geometry" />
        </mxCell>
        <mxCell id="8QER9VguLqibviWdvotn-23" value="1 : N" style="text;html=1;align=center;verticalAlign=middle;resizable=0;points=[];autosize=1;strokeColor=none;fillColor=none;" vertex="1" parent="1">
          <mxGeometry x="205" y="300" width="50" height="30" as="geometry" />
        </mxCell>
        <mxCell id="8QER9VguLqibviWdvotn-48" style="edgeStyle=orthogonalEdgeStyle;rounded=0;orthogonalLoop=1;jettySize=auto;html=1;entryX=0;entryY=0.5;entryDx=0;entryDy=0;" edge="1" parent="1" source="8QER9VguLqibviWdvotn-24" target="8QER9VguLqibviWdvotn-2">
          <mxGeometry relative="1" as="geometry" />
        </mxCell>
        <mxCell id="8QER9VguLqibviWdvotn-24" value="empadronado" style="rhombus;whiteSpace=wrap;html=1;rounded=0;" vertex="1" parent="1">
          <mxGeometry x="540" y="402.5" width="80" height="80" as="geometry" />
        </mxCell>
        <mxCell id="8QER9VguLqibviWdvotn-27" value="codigo" style="ellipse;whiteSpace=wrap;html=1;fillColor=#60a917;fontColor=#ffffff;strokeColor=#2D7600;" vertex="1" parent="1">
          <mxGeometry x="920" y="420" width="70" height="40" as="geometry" />
        </mxCell>
        <mxCell id="8QER9VguLqibviWdvotn-30" value="provincia" style="ellipse;whiteSpace=wrap;html=1;" vertex="1" parent="1">
          <mxGeometry x="920" y="460" width="70" height="40" as="geometry" />
        </mxCell>
        <mxCell id="8QER9VguLqibviWdvotn-31" value="1 : N" style="text;html=1;align=center;verticalAlign=middle;resizable=0;points=[];autosize=1;strokeColor=none;fillColor=none;" vertex="1" parent="1">
          <mxGeometry x="555" y="368" width="50" height="30" as="geometry" />
        </mxCell>
        <mxCell id="8QER9VguLqibviWdvotn-40" value="" style="endArrow=none;html=1;rounded=0;exitX=1;exitY=0.5;exitDx=0;exitDy=0;" edge="1" parent="1" source="8QER9VguLqibviWdvotn-21" target="8QER9VguLqibviWdvotn-3">
          <mxGeometry width="50" height="50" relative="1" as="geometry">
            <mxPoint x="-50" y="490" as="sourcePoint" />
            <mxPoint y="440" as="targetPoint" />
          </mxGeometry>
        </mxCell>
        <mxCell id="8QER9VguLqibviWdvotn-41" value="" style="endArrow=none;html=1;rounded=0;exitX=1;exitY=0.5;exitDx=0;exitDy=0;entryX=0.014;entryY=0.619;entryDx=0;entryDy=0;entryPerimeter=0;" edge="1" parent="1" target="8QER9VguLqibviWdvotn-3">
          <mxGeometry width="50" height="50" relative="1" as="geometry">
            <mxPoint x="-80" y="400" as="sourcePoint" />
            <mxPoint x="10" y="440" as="targetPoint" />
          </mxGeometry>
        </mxCell>
        <mxCell id="8QER9VguLqibviWdvotn-42" value="" style="endArrow=none;html=1;rounded=0;exitX=0;exitY=0.5;exitDx=0;exitDy=0;entryX=0.5;entryY=1;entryDx=0;entryDy=0;" edge="1" parent="1" source="8QER9VguLqibviWdvotn-7" target="8QER9VguLqibviWdvotn-4">
          <mxGeometry width="50" height="50" relative="1" as="geometry">
            <mxPoint x="320" y="488" as="sourcePoint" />
            <mxPoint x="370" y="500" as="targetPoint" />
          </mxGeometry>
        </mxCell>
        <mxCell id="8QER9VguLqibviWdvotn-43" value="" style="endArrow=none;html=1;rounded=0;exitX=0;exitY=0.5;exitDx=0;exitDy=0;entryX=0.5;entryY=1;entryDx=0;entryDy=0;" edge="1" parent="1" source="8QER9VguLqibviWdvotn-12" target="8QER9VguLqibviWdvotn-4">
          <mxGeometry width="50" height="50" relative="1" as="geometry">
            <mxPoint x="429" y="595" as="sourcePoint" />
            <mxPoint x="399" y="490" as="targetPoint" />
          </mxGeometry>
        </mxCell>
        <mxCell id="8QER9VguLqibviWdvotn-44" value="" style="endArrow=none;html=1;rounded=0;entryX=0.5;entryY=1;entryDx=0;entryDy=0;exitX=0;exitY=0.5;exitDx=0;exitDy=0;" edge="1" parent="1" source="8QER9VguLqibviWdvotn-10" target="8QER9VguLqibviWdvotn-4">
          <mxGeometry width="50" height="50" relative="1" as="geometry">
            <mxPoint x="428" y="620" as="sourcePoint" />
            <mxPoint x="399" y="520" as="targetPoint" />
          </mxGeometry>
        </mxCell>
        <mxCell id="8QER9VguLqibviWdvotn-46" value="" style="endArrow=none;html=1;rounded=0;exitX=0;exitY=0.5;exitDx=0;exitDy=0;entryX=0.5;entryY=1;entryDx=0;entryDy=0;" edge="1" parent="1" source="8QER9VguLqibviWdvotn-27">
          <mxGeometry width="50" height="50" relative="1" as="geometry">
            <mxPoint x="856" y="550" as="sourcePoint" />
            <mxPoint x="827" y="440" as="targetPoint" />
            <Array as="points">
              <mxPoint x="880" y="440" />
            </Array>
          </mxGeometry>
        </mxCell>
        <mxCell id="8QER9VguLqibviWdvotn-47" value="" style="endArrow=none;html=1;rounded=0;exitX=0;exitY=0.5;exitDx=0;exitDy=0;" edge="1" parent="1" source="8QER9VguLqibviWdvotn-30">
          <mxGeometry width="50" height="50" relative="1" as="geometry">
            <mxPoint x="913" y="479.66" as="sourcePoint" />
            <mxPoint x="830" y="440" as="targetPoint" />
            <Array as="points">
              <mxPoint x="873" y="479.66" />
            </Array>
          </mxGeometry>
        </mxCell>
        <mxCell id="8QER9VguLqibviWdvotn-55" style="edgeStyle=orthogonalEdgeStyle;rounded=0;orthogonalLoop=1;jettySize=auto;html=1;entryX=1;entryY=0.5;entryDx=0;entryDy=0;" edge="1" parent="1" source="8QER9VguLqibviWdvotn-53" target="8QER9VguLqibviWdvotn-3">
          <mxGeometry relative="1" as="geometry" />
        </mxCell>
        <mxCell id="8QER9VguLqibviWdvotn-53" value="tiene" style="rhombus;whiteSpace=wrap;html=1;rounded=0;" vertex="1" parent="1">
          <mxGeometry x="190" y="450" width="80" height="80" as="geometry" />
        </mxCell>
        <mxCell id="8QER9VguLqibviWdvotn-57" value="1 : 1" style="text;html=1;align=center;verticalAlign=middle;resizable=0;points=[];autosize=1;strokeColor=none;fillColor=none;" vertex="1" parent="1">
          <mxGeometry x="310" y="370" width="50" height="30" as="geometry" />
        </mxCell>
        <mxCell id="8QER9VguLqibviWdvotn-59" value="0 : N" style="text;html=1;align=center;verticalAlign=middle;resizable=0;points=[];autosize=1;strokeColor=none;fillColor=none;" vertex="1" parent="1">
          <mxGeometry x="90" y="370" width="50" height="30" as="geometry" />
        </mxCell>
        <mxCell id="8QER9VguLqibviWdvotn-61" value="1 : n" style="text;html=1;align=center;verticalAlign=middle;resizable=0;points=[];autosize=1;strokeColor=none;fillColor=none;" vertex="1" parent="1">
          <mxGeometry x="445" y="368" width="50" height="30" as="geometry" />
        </mxCell>
        <mxCell id="8QER9VguLqibviWdvotn-62" value="1 : 1" style="text;html=1;align=center;verticalAlign=middle;resizable=0;points=[];autosize=1;strokeColor=none;fillColor=none;" vertex="1" parent="1">
          <mxGeometry x="675" y="368" width="50" height="30" as="geometry" />
        </mxCell>
        <mxCell id="8QER9VguLqibviWdvotn-63" value="0 : n" style="text;html=1;align=center;verticalAlign=middle;resizable=0;points=[];autosize=1;strokeColor=none;fillColor=none;" vertex="1" parent="1">
          <mxGeometry x="295" y="498" width="50" height="30" as="geometry" />
        </mxCell>
        <mxCell id="8QER9VguLqibviWdvotn-64" value="1 : n" style="text;html=1;align=center;verticalAlign=middle;resizable=0;points=[];autosize=1;strokeColor=none;fillColor=none;" vertex="1" parent="1">
          <mxGeometry x="95" y="478" width="50" height="30" as="geometry" />
        </mxCell>
      </root>
    </mxGraphModel>
  </diagram>
</mxfile>
